<?xml version="1.0" encoding="utf-8"?>
<!-- Generator: Adobe Illustrator 16.0.0, SVG Export Plug-In . SVG Version: 6.00 Build 0)  -->
<!DOCTYPE svg PUBLIC "-//W3C//DTD SVG 1.1//EN" "http://www.w3.org/Graphics/SVG/1.1/DTD/svg11.dtd">
<svg version="1.1" id="레이어_1" xmlns="http://www.w3.org/2000/svg" xmlns:xlink="http://www.w3.org/1999/xlink" x="0px"
	 y="0px" width="505px" height="69px" viewBox="0 0 505 69" enable-background="new 0 0 505 69" xml:space="preserve">
<path fill="#DA4148" d="M76.884,30.927H31.988c-8.209,0-14.867-6.661-14.867-14.872l0,0c0-8.209,6.658-14.868,14.867-14.868h77.652
	L85.984,27.466C83.947,29.75,81.061,30.927,76.884,30.927z"/>
<path fill="#AAA6A5" d="M33.756,37.205h44.892c8.207,0,14.868,6.654,14.868,14.865l0,0c0,8.205-6.661,14.867-14.868,14.867H1
	l23.653-26.281C26.687,38.372,29.579,37.205,33.756,37.205z"/>
<polygon fill="#FFFFFF" points="169.921,66.938 184.229,66.938 190.225,23.62 175.917,23.62 "/>
<polygon fill="#FFFFFF" points="170.223,9.186 168.97,18.289 138.646,18.289 136.689,32.379 163.667,32.379 162.415,41.482 
	135.436,41.482 131.911,66.938 117.037,66.938 125.028,9.186 "/>
<path fill="#FFFFFF" d="M214.062,23.62h-12.391l-5.993,43.317h14.312l4.319-31.584c5.424-2.246,10.8-3.234,15.54-3.234l1.262-9.2
	c-5.504,0-11.966,2.185-16.744,4.608L214.062,23.62z"/>
<path fill="#FFFFFF" d="M345.268,27.668c4.795-2.493,11.637-4.749,17.734-4.749c10.244,0,12.368,5.459,11.625,10.494l-4.633,33.524
	h-14.311c0,0,3.619-26.054,4.186-30.209c0.393-2.914-0.133-4.131-2.824-4.131c-3.945,0-9.945,1.555-11.681,2.072l-4.47,32.269
	h-14.31l5.993-43.321h12.391L345.268,27.668z"/>
<path fill="#FFFFFF" d="M192.606,11.278c0,4.348-3.521,7.866-7.866,7.866c-4.345,0-7.863-3.519-7.863-7.866
	c0-4.341,3.519-7.866,7.863-7.866C189.084,3.412,192.606,6.937,192.606,11.278z"/>
<path fill="#FFFFFF" d="M302.434,22.919c-17.606,0-22.233,3.84-24.621,19.427c-2.354,16.559-4.607,25.291,18.965,25.291
	c17.605,0,22.229-3.84,24.617-19.427C323.749,31.653,326.005,22.919,302.434,22.919z M307.635,45.914L307.635,45.914
	c-1.693,11.834-4.104,13.438-9.688,13.438c-7.004,0-8.561-0.759-6.377-14.707l0,0c1.697-11.834,4.106-13.438,9.691-13.438
	C308.266,31.207,309.822,31.965,307.635,45.914z"/>
<path fill="#FFFFFF" d="M248.096,33.902c-0.048,2.696,5.292,4.964,11.372,8.432c6.308,3.596,10.665,7.514,10.574,12.896
	c-0.151,8.531-7.479,12.406-19.141,12.406c-7.596,0-15.851-0.729-19-1.111l1.135-8.164c4.135,0.435,12.814,0.99,16.525,0.99
	c2.471,0,6.183,0.09,6.231-2.697c0.044-2.692-6.009-4.961-12.085-8.432c-6.307-3.596-9.955-7.512-9.861-12.896
	c0.151-8.532,7.48-12.407,19.141-12.407c7.593,0,15.848,0.729,18.998,1.112l-1.131,8.165c-4.137-0.434-12.814-0.99-16.526-0.99
	C251.853,31.207,248.144,31.12,248.096,33.902z"/>
<g>
	<g>
		<g>
			<path fill="#FFFFFF" d="M411.4,39.941c0.172,0,24.435,0.006,24.604,0.006c0,0.152,0,2.003,0,2.154c-0.171,0-10.758,0-10.758,0
				s0,10.306,0,10.474c-0.162,0-3.127,0-3.288,0c0-0.168,0-10.474,0-10.474s-10.389,0-10.559,0
				C411.4,41.95,411.4,40.102,411.4,39.941z"/>
			<path fill="#FFFFFF" d="M414.096,23.649c0.172,0,19.038,0,19.209,0c0,0.158,0,2.034,0,2.191c-0.167,0-7.604,0-7.604,0v0.347
				c0,2.426,1.911,4.771,3.806,6.023c1.588,1.049,3.501,1.815,5.995,2.408c-0.037,0.15-0.516,1.97-0.554,2.104
				c-3.812-0.494-8.542-2.352-10.593-5.427l-0.578-0.948l-0.075-0.125l-0.659,1.083c-2.043,3.066-6.772,4.922-10.588,5.418
				c-0.033-0.136-0.511-1.96-0.55-2.105c2.5-0.593,4.408-1.359,5.99-2.408c1.898-1.251,3.812-3.597,3.812-6.023V25.84
				c0,0-7.438,0-7.608,0C414.096,25.683,414.096,23.803,414.096,23.649z"/>
			<g>
				<path fill="#FFFFFF" d="M407.243,37.438c0-6.914,1.866-12.873,4.563-15.659h-2.604c-2.691,2.792-4.55,8.753-4.55,15.659
					c0,6.908,1.857,12.867,4.55,15.658h2.604C409.109,50.309,407.243,44.35,407.243,37.438z"/>
			</g>
			<g>
				<path fill="#FFFFFF" d="M440.311,37.438c0-6.914-1.865-12.873-4.565-15.659h2.604c2.69,2.792,4.553,8.753,4.553,15.659
					c0,6.908-1.861,12.867-4.553,15.658h-2.603C438.444,50.309,440.311,44.35,440.311,37.438z"/>
			</g>
		</g>
		<path fill="#FFFFFF" d="M493.056,23.649v2.344c0,2.425,1.911,4.773,3.806,6.024c1.593,1.051,3.499,1.817,5.999,2.412
			c-0.037,0.145-0.521,1.967-0.556,2.096c-3.812-0.488-8.546-2.347-10.593-5.425l-0.653-1.07l-0.656,1.08
			c-2.045,3.068-6.776,4.927-10.587,5.417c-0.035-0.129-0.518-1.953-0.555-2.097c2.499-0.597,4.407-1.366,5.994-2.412
			c1.895-1.251,3.805-3.601,3.805-6.024V23.65L493.056,23.649L493.056,23.649z"/>
		<path fill="#FFFFFF" d="M477.507,41.302c0-0.151,0-2.001,0-2.155c0.182,0,26.93,0,27.106,0c0,0.154,0,2.01,0,2.16
			C504.437,41.307,477.688,41.302,477.507,41.302z"/>
		<path fill="#FFFFFF" d="M481.198,43.51c0.159,0,3.132,0,3.287,0c0,0.174,0,6.909,0,6.909s17.139,0,17.31,0
			c0,0.153,0,2.002,0,2.156c-0.127,0-13.485,0-17.947,0c-0.95,0-2.648-0.356-2.648-2.382L481.198,43.51L481.198,43.51z"/>
		<g>
			<path fill="#FFFFFF" d="M470.894,52.575c0-0.175,0-19.589,0-19.589s-4.994,0-5.158,0c0-0.154,0-2.098,0-2.254
				c0.164,0,5.158,0,5.158,0s0-7.673,0-7.845c0.16,0,2.859,0,3.02,0c0,0.174,0,29.513,0,29.688H470.894z"/>
			<path fill="#FFFFFF" d="M448.493,25.773c0-0.154,0-2.002,0-2.156c0.175,0,17.525,0,17.697,0c0,0.154,0,2.002,0,2.158
				C466.02,25.774,448.668,25.773,448.493,25.773z"/>
			<path fill="#FFFFFF" d="M463.885,40.053c0,0-0.416,0-1.109,0V26.962h-3.479v13.091c-1.229,0-2.586,0-3.912,0V26.962h-3.479
				v13.091c-1.943,0-3.361,0-3.413,0c0,0.162,0,1.992,0,2.156c0.184,0,15.392,0,15.392,0c0.503,0,1.538-0.059,2.307-0.432v-2.172
				C465.547,39.956,464.439,40.053,463.885,40.053z"/>
		</g>
	</g>
</g>
</svg>
