<?xml version="1.0" encoding="utf-8"?>
<!-- Generator: Adobe Illustrator 16.0.0, SVG Export Plug-In . SVG Version: 6.00 Build 0)  -->
<!DOCTYPE svg PUBLIC "-//W3C//DTD SVG 1.1//EN" "http://www.w3.org/Graphics/SVG/1.1/DTD/svg11.dtd">
<svg version="1.1" id="레이어_1" xmlns="http://www.w3.org/2000/svg" xmlns:xlink="http://www.w3.org/1999/xlink" x="0px"
	 y="0px" width="505px" height="69px" viewBox="0 0 505 69" enable-background="new 0 0 505 69" xml:space="preserve">
<path fill="#DA4148" d="M76.884,30.927H31.988c-8.209,0-14.867-6.661-14.867-14.872l0,0c0-8.209,6.658-14.868,14.867-14.868h77.652
	L85.984,27.466C83.947,29.75,81.061,30.927,76.884,30.927z"/>
<path fill="#AAA6A5" d="M33.756,37.205h44.892c8.207,0,14.868,6.655,14.868,14.865l0,0c0,8.206-6.661,14.867-14.868,14.867H1
	l23.653-26.281C26.687,38.372,29.579,37.205,33.756,37.205z"/>
<polygon fill="#DA4148" points="169.921,66.938 184.229,66.938 190.225,23.62 175.917,23.62 "/>
<polygon fill="#DA4148" points="170.223,9.186 168.97,18.289 138.646,18.289 136.689,32.379 163.667,32.379 162.415,41.482 
	135.436,41.482 131.911,66.938 117.037,66.938 125.028,9.186 "/>
<path fill="#DA4148" d="M214.062,23.62h-12.391l-5.993,43.317h14.312l4.319-31.583c5.424-2.246,10.8-3.235,15.54-3.235l1.262-9.2
	c-5.504,0-11.966,2.185-16.744,4.608L214.062,23.62z"/>
<path fill="#DA4148" d="M345.268,27.668c4.795-2.493,11.636-4.749,17.734-4.749c10.244,0,12.368,5.459,11.625,10.494l-4.633,33.524
	h-14.31c0,0,3.618-26.053,4.185-30.208c0.393-2.914-0.132-4.132-2.824-4.132c-3.946,0-9.945,1.555-11.681,2.072l-4.47,32.268
	h-14.309l5.993-43.321h12.391L345.268,27.668z"/>
<path fill="#DA4148" d="M192.606,11.278c0,4.348-3.521,7.866-7.866,7.866s-7.863-3.519-7.863-7.866c0-4.341,3.519-7.866,7.863-7.866
	S192.606,6.937,192.606,11.278z"/>
<path fill="#DA4148" d="M302.433,22.919c-17.606,0-22.233,3.84-24.62,19.427c-2.355,16.558-4.608,25.291,18.965,25.291
	c17.605,0,22.229-3.84,24.616-19.427C323.749,31.653,326.005,22.919,302.433,22.919z M307.635,45.914L307.635,45.914
	c-1.693,11.834-4.104,13.438-9.688,13.438c-7.003,0-8.561-0.759-6.376-14.707l0,0c1.696-11.835,4.106-13.438,9.691-13.438
	C308.265,31.207,309.822,31.965,307.635,45.914z"/>
<path fill="#DA4148" d="M248.096,33.902c-0.048,2.696,5.292,4.964,11.372,8.432c6.308,3.596,10.665,7.513,10.574,12.897
	c-0.151,8.531-7.48,12.406-19.141,12.406c-7.596,0-15.851-0.729-19-1.111l1.135-8.165c4.135,0.435,12.814,0.99,16.525,0.99
	c2.471,0,6.183,0.09,6.231-2.696c0.044-2.693-6.009-4.961-12.085-8.432c-6.307-3.596-9.955-7.512-9.861-12.897
	c0.151-8.532,7.48-12.407,19.141-12.407c7.593,0,15.848,0.729,18.997,1.112l-1.131,8.165c-4.136-0.434-12.814-0.99-16.526-0.99
	C251.853,31.207,248.144,31.12,248.096,33.902z"/>
<g>
	<g>
		<g>
			<path fill="#AAA6A5" d="M411.401,39.941c0.171,0,24.434,0.006,24.604,0.006c0,0.153,0,2.003,0,2.155c-0.171,0-10.758,0-10.758,0
				s0,10.305,0,10.473c-0.162,0-3.127,0-3.288,0c0-0.168,0-10.473,0-10.473s-10.388,0-10.559,0
				C411.401,41.95,411.401,40.101,411.401,39.941z"/>
			<path fill="#AAA6A5" d="M414.096,23.649c0.171,0,19.038,0,19.209,0c0,0.158,0,2.034,0,2.191c-0.167,0-7.605,0-7.605,0v0.347
				c0,2.426,1.911,4.771,3.806,6.023c1.588,1.049,3.501,1.815,5.995,2.408c-0.037,0.15-0.516,1.97-0.554,2.105
				c-3.811-0.495-8.542-2.352-10.593-5.427l-0.578-0.948l-0.075-0.125l-0.659,1.083c-2.043,3.066-6.772,4.923-10.588,5.418
				c-0.033-0.135-0.511-1.96-0.549-2.105c2.499-0.593,4.407-1.359,5.99-2.408c1.898-1.251,3.811-3.597,3.811-6.023V25.84
				c0,0-7.438,0-7.609,0C414.096,25.683,414.096,23.803,414.096,23.649z"/>
			<g>
				<path fill="#AAA6A5" d="M407.243,37.437c0-6.913,1.866-12.872,4.564-15.658h-2.605c-2.691,2.792-4.55,8.753-4.55,15.658
					c0,6.909,1.858,12.868,4.55,15.658h2.605C409.109,50.309,407.243,44.35,407.243,37.437z"/>
			</g>
			<g>
				<path fill="#AAA6A5" d="M440.311,37.437c0-6.913-1.866-12.872-4.566-15.658h2.605c2.69,2.792,4.552,8.753,4.552,15.658
					c0,6.909-1.861,12.868-4.552,15.658h-2.603C438.444,50.309,440.311,44.35,440.311,37.437z"/>
			</g>
		</g>
		<path fill="#AAA6A5" d="M493.056,23.649v2.344c0,2.425,1.911,4.773,3.805,6.024c1.593,1.051,3.499,1.817,5.999,2.412
			c-0.037,0.145-0.52,1.968-0.555,2.097c-3.812-0.489-8.546-2.348-10.593-5.426l-0.653-1.07l-0.657,1.08
			c-2.045,3.068-6.776,4.927-10.587,5.417c-0.035-0.129-0.517-1.953-0.554-2.097c2.499-0.597,4.407-1.366,5.994-2.412
			c1.894-1.251,3.805-3.601,3.805-6.024v-2.344H493.056z"/>
		<path fill="#AAA6A5" d="M477.507,41.302c0-0.152,0-2.001,0-2.155c0.181,0,26.93,0,27.106,0c0,0.154,0,2.009,0,2.159
			C504.437,41.306,477.688,41.302,477.507,41.302z"/>
		<path fill="#AAA6A5" d="M481.198,43.51c0.159,0,3.132,0,3.287,0c0,0.174,0,6.909,0,6.909s17.139,0,17.31,0
			c0,0.153,0,2.002,0,2.156c-0.127,0-13.485,0-17.947,0c-0.951,0-2.649-0.356-2.649-2.382V43.51z"/>
		<g>
			<path fill="#AAA6A5" d="M470.894,52.575c0-0.174,0-19.589,0-19.589s-4.995,0-5.159,0c0-0.154,0-2.098,0-2.254
				c0.164,0,5.159,0,5.159,0s0-7.673,0-7.845c0.16,0,2.859,0,3.019,0c0,0.174,0,29.514,0,29.688H470.894z"/>
			<path fill="#AAA6A5" d="M448.493,25.773c0-0.154,0-2.002,0-2.156c0.175,0,17.526,0,17.697,0c0,0.154,0,2.002,0,2.158
				C466.02,25.774,448.668,25.773,448.493,25.773z"/>
			<path fill="#AAA6A5" d="M463.885,40.053c0,0-0.416,0-1.11,0V26.962h-3.478v13.091c-1.23,0-2.586,0-3.912,0V26.962h-3.479v13.091
				c-1.943,0-3.361,0-3.413,0c0,0.162,0,1.992,0,2.156c0.184,0,15.392,0,15.392,0c0.503,0,1.538-0.059,2.306-0.432v-2.171
				C465.547,39.956,464.439,40.053,463.885,40.053z"/>
		</g>
	</g>
</g>
</svg>
